<svg width="33" height="33" viewBox="0 0 33 33" fill="none" xmlns="http://www.w3.org/2000/svg">
<path d="M9.85928 24.0605L4.13825 29.76L2.25621 27.8708L7.97725 22.1713C6.33846 20.115 5.36071 17.5093 5.36606 14.6773C5.37857 8.05333 10.7647 2.68749 17.3887 2.7C24.0127 2.71251 29.3785 8.09865 29.366 14.7226C29.3535 21.3466 23.9674 26.7125 17.3434 26.7C14.5114 26.6946 11.9094 25.707 9.85928 24.0605ZM10.8537 21.3873C12.5309 23.0209 14.821 24.0285 17.3484 24.0333C22.5051 24.043 26.6896 19.8743 26.6994 14.7176C26.7091 9.56094 22.5403 5.3764 17.3837 5.36666C12.227 5.35692 8.04246 9.5257 8.03272 14.6824C8.02795 17.2098 9.02695 19.5037 10.6542 21.187L10.8537 21.3873Z" fill="#E6EAEF"/>
</svg>
