<svg width="30" height="27" viewBox="0 0 30 27" fill="none" xmlns="http://www.w3.org/2000/svg">
<path d="M6.66667 23.5314H22.6667V10.408L14.6667 3.13527L6.66667 10.408V23.5314ZM24 26.198H5.33333C4.59696 26.198 4 25.6011 4 24.8647V12.8647H0L13.7697 0.34674C14.2783 -0.11558 15.0551 -0.11558 15.5636 0.34674L29.3333 12.8647H25.3333V24.8647C25.3333 25.6011 24.7364 26.198 24 26.198ZM8.66667 15.5314H11.3333C11.3333 17.3723 12.8257 18.8647 14.6667 18.8647C16.5076 18.8647 18 17.3723 18 15.5314H20.6667C20.6667 18.8451 17.9804 21.5314 14.6667 21.5314C11.353 21.5314 8.66667 18.8451 8.66667 15.5314Z" fill="#E6EAEF"/>
</svg>
