<svg width="42" height="42" viewBox="0 0 42 42" fill="none" xmlns="http://www.w3.org/2000/svg">
<path d="M21.0004 40.6004C31.8252 40.6004 40.6004 31.8252 40.6004 21.0004C40.6004 10.1756 31.8252 1.40039 21.0004 1.40039C10.1756 1.40039 1.40039 10.1756 1.40039 21.0004C1.40039 31.8252 10.1756 40.6004 21.0004 40.6004Z" fill="url(#paint0_linear_143_2385)"/>
<path d="M20.9996 36.3996C29.5048 36.3996 36.3996 29.5048 36.3996 20.9996C36.3996 12.4944 29.5048 5.59961 20.9996 5.59961C12.4944 5.59961 5.59961 12.4944 5.59961 20.9996C5.59961 29.5048 12.4944 36.3996 20.9996 36.3996Z" fill="white"/>
<path d="M21.7004 14.6998C21.7004 13.9266 21.0736 13.2998 20.3004 13.2998C19.5272 13.2998 18.9004 13.9266 18.9004 14.6998V28.6998C18.9004 29.473 19.5272 30.0998 20.3004 30.0998C21.0736 30.0998 21.7004 29.473 21.7004 28.6998V14.6998Z" fill="#FF2A55"/>
<path d="M27.3004 20.2998H13.3004C12.5272 20.2998 11.9004 20.9266 11.9004 21.6998C11.9004 22.473 12.5272 23.0998 13.3004 23.0998H27.3004C28.0736 23.0998 28.7004 22.473 28.7004 21.6998C28.7004 20.9266 28.0736 20.2998 27.3004 20.2998Z" fill="#FF2A55"/>
<path d="M23.1008 13.3004C23.1008 12.5272 22.474 11.9004 21.7008 11.9004C20.9276 11.9004 20.3008 12.5272 20.3008 13.3004V27.3004C20.3008 28.0736 20.9276 28.7004 21.7008 28.7004C22.474 28.7004 23.1008 28.0736 23.1008 27.3004V13.3004Z" fill="#00F2EA"/>
<path d="M28.4 19H14.4C13.6268 19 13 19.6268 13 20.4C13 21.1732 13.6268 21.8 14.4 21.8H28.4C29.1732 21.8 29.8 21.1732 29.8 20.4C29.8 19.6268 29.1732 19 28.4 19Z" fill="#00F2EA"/>
<defs>
<linearGradient id="paint0_linear_143_2385" x1="0.000390394" y1="21.0004" x2="42.0004" y2="21.0004" gradientUnits="userSpaceOnUse">
<stop stop-color="#FF2A55"/>
<stop offset="1" stop-color="#00F2EA"/>
</linearGradient>
</defs>
</svg>
