<svg width="32" height="32" viewBox="0 0 32 32" fill="none" xmlns="http://www.w3.org/2000/svg">
<path d="M8.00065 25.3331H24.0007V12.2098L16.0007 4.93703L8.00065 12.2098V25.3331ZM25.334 27.9998H6.66732C5.93094 27.9998 5.33398 27.4029 5.33398 26.6665V14.6665H1.33398L15.1037 2.1485C15.6123 1.68618 16.3891 1.68618 16.8976 2.1485L30.6673 14.6665H26.6673V26.6665C26.6673 27.4029 26.0704 27.9998 25.334 27.9998ZM10.0007 17.3331H12.6673C12.6673 19.1741 14.1597 20.6665 16.0007 20.6665C17.8416 20.6665 19.334 19.1741 19.334 17.3331H22.0007C22.0007 20.6469 19.3144 23.3331 16.0007 23.3331C12.6869 23.3331 10.0007 20.6469 10.0007 17.3331Z" fill="#777777"/>
</svg>
