<svg width="41" height="43" viewBox="0 0 41 43" fill="none" xmlns="http://www.w3.org/2000/svg">
<g clip-path="url(#clip0_266_1265)">
<path d="M32 16.3334C32.0046 18.0932 31.5934 19.8292 30.8 21.4C29.8592 23.2824 28.413 24.8656 26.6233 25.9724C24.8335 27.0792 22.771 27.6659 20.6667 27.6667C18.9068 27.6713 17.1708 27.2601 15.6 26.4667L8 29L10.5333 21.4C9.73991 19.8292 9.32875 18.0932 9.33333 16.3334C9.33415 14.229 9.92082 12.1665 11.0276 10.3768C12.1344 8.58704 13.7177 7.14079 15.6 6.20004C17.1708 5.40661 18.9068 4.99545 20.6667 5.00004H21.3333C24.1125 5.15336 26.7374 6.32639 28.7055 8.29452C30.6737 10.2626 31.8467 12.8876 32 15.6667V16.3334Z" stroke="#777777" stroke-width="3" stroke-linecap="round" stroke-linejoin="round"/>
<rect x="25" y="23" width="13" height="10" rx="5" fill="#FF2A55"/>
<path d="M28.4517 30V29.6165L29.892 28.0398C30.0611 27.8551 30.2003 27.6946 30.3097 27.5582C30.419 27.4205 30.5 27.2912 30.5526 27.1705C30.6065 27.0483 30.6335 26.9205 30.6335 26.7869C30.6335 26.6335 30.5966 26.5007 30.5227 26.3885C30.4503 26.2763 30.3509 26.1896 30.2244 26.1286C30.098 26.0675 29.956 26.0369 29.7983 26.0369C29.6307 26.0369 29.4844 26.0717 29.3594 26.1413C29.2358 26.2095 29.1399 26.3054 29.0717 26.429C29.005 26.5526 28.9716 26.6974 28.9716 26.8636H28.4688C28.4688 26.608 28.5277 26.3835 28.6456 26.1903C28.7635 25.9972 28.924 25.8466 29.1271 25.7386C29.3317 25.6307 29.5611 25.5767 29.8153 25.5767C30.071 25.5767 30.2976 25.6307 30.495 25.7386C30.6925 25.8466 30.8473 25.9922 30.9595 26.1754C31.0717 26.3587 31.1278 26.5625 31.1278 26.7869C31.1278 26.9474 31.0987 27.1044 31.0405 27.2578C30.9837 27.4098 30.8842 27.5795 30.7422 27.767C30.6016 27.9531 30.4062 28.1804 30.1562 28.4489L29.1761 29.4972V29.5312H31.2045V30H28.4517ZM33.6186 25.6364V30H33.0902V26.1903H33.0646L31.9993 26.8977V26.3608L33.0902 25.6364H33.6186Z" fill="white"/>
</g>
<defs>
<clipPath id="clip0_266_1265">
<rect width="41" height="43" fill="white"/>
</clipPath>
</defs>
</svg>
