<svg width="32" height="37" viewBox="0 0 32 37" fill="none" xmlns="http://www.w3.org/2000/svg">
<path d="M14.334 4.58301C14.334 3.66253 15.0802 2.91634 16.0007 2.91634C16.9211 2.91634 17.6673 3.66253 17.6673 4.58301H14.334ZM16.0007 2.70801C15.31 2.70801 14.7507 2.14863 14.7507 1.45801C14.7507 0.767383 15.31 0.208008 16.0007 0.208008C16.6913 0.208008 17.2507 0.767383 17.2507 1.45801C17.2507 2.14863 16.6913 2.70801 16.0007 2.70801Z" fill="#777777"/>
<path d="M4 21.0003H9.33333V33.0003H4V21.0003ZM22.6667 15.667H28V33.0003H22.6667V15.667ZM13.3333 7.66699H18.6667V33.0003H13.3333V7.66699Z" fill="#777777"/>
<g clip-path="url(#clip0_266_1259)">
<path d="M4.83398 18.583C4.83398 17.6625 5.58018 16.9163 6.50065 16.9163C7.42113 16.9163 8.16732 17.6625 8.16732 18.583H4.83398ZM6.50065 16.708C5.81003 16.708 5.25065 16.1486 5.25065 15.458C5.25065 14.7674 5.81003 14.208 6.50065 14.208C7.19128 14.208 7.75065 14.7674 7.75065 15.458C7.75065 16.1486 7.19128 16.708 6.50065 16.708Z" fill="#777777"/>
</g>
<g clip-path="url(#clip1_266_1259)">
<path d="M23.834 12.583C23.834 11.6625 24.5802 10.9163 25.5007 10.9163C26.4211 10.9163 27.1673 11.6625 27.1673 12.583H23.834ZM25.5007 10.708C24.81 10.708 24.2507 10.1486 24.2507 9.45801C24.2507 8.76738 24.81 8.20801 25.5007 8.20801C26.1913 8.20801 26.7507 8.76738 26.7507 9.45801C26.7507 10.1486 26.1913 10.708 25.5007 10.708Z" fill="#777777"/>
</g>
<defs>
<clipPath id="clip0_266_1259">
<rect width="5" height="5" fill="white" transform="translate(4 14)"/>
</clipPath>
<clipPath id="clip1_266_1259">
<rect width="5" height="5" fill="white" transform="translate(23 8)"/>
</clipPath>
</defs>
</svg>
